<mxfile host="app.diagrams.net" modified="2024-05-01T07:24:39.230Z" agent="Mozilla/5.0 (Macintosh; Intel Mac OS X 10_15_7) AppleWebKit/537.36 (KHTML, like Gecko) Chrome/123.0.0.0 Safari/537.36" version="24.3.1" etag="7dam9rLal2g8-HY0BQkX" type="github">
  <diagram name="Page-1" id="joBwyawbZWluH3NYlRDK">
    <mxGraphModel>
      <root>
        <mxCell id="0" />
        <mxCell id="1" parent="0" />
      </root>
    </mxGraphModel>
  </diagram>
</mxfile>
